<svg width="130" height="130" viewBox="0 0 130 130" fill="none" xmlns="http://www.w3.org/2000/svg">
<rect width="130" height="130" rx="6" fill="white"/>
<path d="M42.3931 99.4862C40.5224 99.7465 39.0909 100.641 38.0011 102.187C36.3256 104.52 33.9799 111.212 38.0011 119.323C43.0275 129.461 32.7632 126.26 27.6879 121.457C23.6278 117.616 26.2131 106.934 28.0133 102.073C31.2341 92.5555 36.5858 82.4849 42.4093 74.2527C46.5086 68.4608 51.2747 63.2872 56.6102 58.6017C63.9465 52.1428 72.0799 46.6926 79.6439 40.5429C83.2551 37.6144 86.5898 34.4094 89.5991 30.8627C82.9948 36.4593 75.4471 40.4778 67.883 44.48C60.5305 48.3846 53.243 52.3869 46.7688 57.6744C39.2373 63.8404 33.2512 71.2754 28.7453 79.9144C26.289 84.6162 24.3695 89.5294 22.6127 94.5241C22.4501 94.9634 22.4501 95.484 22.0271 95.8094C21.5554 95.7768 21.5717 95.3701 21.4903 95.0772C19.1642 86.9426 17.7327 78.6779 18.0418 70.1854C18.3834 61.1072 21.409 53.0376 27.6879 46.3998C32.08 41.7468 37.3666 38.2327 43.0275 35.2879C51.4862 30.879 60.3678 27.4462 69.2332 23.9808C82.5882 18.7584 95.7968 13.2432 108.062 5.7268C109.331 4.94588 110.551 4.09988 111.803 3.28642C112.08 3.10746 112.389 2.87969 112.73 3.07492C113.105 3.28642 112.991 3.66061 112.958 3.98599C111.478 17.2779 109.461 30.4723 106.029 43.4225C103.751 51.9964 100.921 60.3588 96.8053 68.2493C92.9826 75.5705 88.1677 82.127 81.6284 87.268C74.9265 92.5393 67.1998 95.4189 58.9201 96.997C53.4382 98.0382 47.9075 98.7053 42.3931 99.4862Z" fill="#00A551"/>
</svg>
