<svg width="687" height="257" viewBox="0 0 687 257" fill="none" xmlns="http://www.w3.org/2000/svg">
<g clip-path="url(#clip0_48_194)">
<path d="M182.737 155.926C182.737 120.481 161.955 99.1689 127.532 99.1689C102.542 99.1689 84.3122 110.023 76.0785 128.683V106.547L76.3063 101.745C76.595 98.6353 77.2482 95.6015 79.1015 92.9641C80.1194 91.5159 81.4562 90.6774 83.2032 90.4335C88.3531 89.7017 93.5182 89.0767 98.6376 88.101C106.37 86.6222 113.586 83.9239 119.845 78.9845C125.952 74.1671 130.448 68.0233 134.018 61.1631C137.862 53.7693 140.505 45.9334 142.632 37.8993C145.837 25.7642 147.721 13.4006 149.103 0.945404C149.134 0.640505 149.24 0.28987 148.891 0.091685C148.572 -0.0912548 148.283 0.122175 148.025 0.28987C146.855 1.05212 145.716 1.84486 144.531 2.57662C133.077 9.6198 120.741 14.7879 108.269 19.6815C99.9897 22.9287 91.6952 26.1454 83.7957 30.2768C78.5091 33.0361 73.5719 36.329 69.4702 40.6891C63.6063 46.909 60.7807 54.4706 60.4617 62.9773C60.1731 70.9351 61.5099 78.6796 63.6823 86.3021C63.7582 86.5765 63.743 86.9576 64.1836 86.9881C64.5786 86.6832 64.5786 86.1954 64.7305 85.7838C66.3712 81.1035 68.1637 76.4996 70.4576 72.0938C74.6656 63.9987 80.2561 57.0317 87.2897 51.2539C93.3359 46.2992 100.142 42.549 107.008 38.8902C114.072 35.1399 121.121 31.3744 127.289 26.1301C124.478 29.4535 121.364 32.4568 117.991 35.2009C110.927 40.9635 103.332 46.0706 96.4805 52.1228C91.4977 56.5134 87.0466 61.3613 83.2184 66.7885C77.7799 74.5025 72.7819 83.9391 69.774 92.8574C68.8929 95.4491 68.2549 97.934 67.7688 100.388C53.3521 100.709 43.8423 106.136 35.8213 118.545V101.928H0V203.628H35.7909V160.073C35.7909 140.986 44.0702 131.336 60.8415 131.336C66.1433 131.336 69.3639 132.022 74.0124 134.171C72.1591 140.056 71.1868 146.581 71.1868 153.685C71.1868 186.431 93.9891 207.744 129.081 207.744C147.189 207.744 163.064 201.463 172.225 190.7C176.478 185.76 178.711 181.278 181.172 172.756H146.749C142.282 179.937 137.588 182.406 129.096 182.406C114.786 182.406 107.631 174.784 107.418 159.524H182.752V155.941L182.737 155.926ZM108.299 138.653C110.092 128.333 117.688 122.28 128.413 122.28C139.138 122.28 146.961 128.561 149.422 138.653H108.299Z" fill="#00A551"/>
<path d="M190.044 102.02H225.805V114.581C236.317 104.261 245.478 100.449 258.664 100.449C274.311 100.449 284.823 106.288 292.859 119.292C300.911 106.73 312.304 100.221 327.283 100.221C339.132 100.221 350.313 105.602 355.889 113.911C359.686 119.75 361.479 126.915 361.479 137.693V203.643H325.718V153.395C325.718 143.074 325.491 141.275 323.698 137.251C321.465 131.641 316.543 128.271 310.74 128.271C304.937 128.271 298.663 132.083 295.989 137.693C294.196 141.504 293.528 145.773 293.528 153.395V203.643H257.767V153.395C257.767 142.632 257.54 140.833 256.203 137.251C254.197 131.641 248.151 127.601 242.348 127.601C236.545 127.601 230.727 131.412 228.266 136.123C226.473 139.705 225.805 144.416 225.805 153.395V203.643H190.044V102.035V102.02Z" fill="#008BCD"/>
<path d="M478.483 172.665C476.022 181.187 473.789 185.669 469.535 190.608C460.375 201.371 444.5 207.652 426.392 207.652C391.3 207.652 368.497 186.339 368.497 153.593C368.497 120.847 390.176 99.0771 424.827 99.0771C459.479 99.0771 480.033 120.39 480.033 155.834V159.417H404.698C404.926 174.677 412.082 182.3 426.377 182.3C434.869 182.3 439.563 179.83 444.029 172.649H478.453L478.483 172.665ZM446.748 138.577C444.287 128.485 436.464 122.204 425.739 122.204C415.013 122.204 407.418 128.256 405.625 138.577H446.748Z" fill="#008BCD"/>
<path d="M568.34 192.407C560.516 202.499 550.688 206.981 537.046 206.981C508.213 206.981 485.851 183.199 485.851 152.48C485.851 121.762 507.985 98.6502 536.818 98.6502C549.776 98.6502 559.62 102.69 568.34 111.883V39.21H604.101V203.627H568.34V192.407ZM546.434 176.034C559.18 176.034 569.464 165.713 569.464 152.709C569.464 139.705 559.18 129.597 546.221 129.597C533.263 129.597 523.191 140.147 523.191 152.48C523.191 165.484 533.476 176.034 546.434 176.034Z" fill="#008BCD"/>
<path d="M664.745 193.749H662.147V190.761H670.776V193.749H668.148V203.506H664.73V193.749H664.745ZM673.51 190.761H676.852L679.252 197.301L681.774 190.761H685.162L687 203.506H683.582L682.731 196.6L679.936 203.506H678.463L675.804 196.6L674.817 203.506H671.429L673.495 190.761H673.51Z" fill="#008BCD"/>
<path d="M654.232 102.02H618.472V203.627H654.232V102.02Z" fill="#008BCD"/>
<path d="M636.352 90.0676C647.787 90.0676 657.058 80.7646 657.058 69.2887C657.058 57.8128 647.787 48.5098 636.352 48.5098C624.916 48.5098 615.646 57.8128 615.646 69.2887C615.646 80.7646 624.916 90.0676 636.352 90.0676Z" fill="#008BCD"/>
</g>
<defs>
<clipPath id="clip0_48_194">
<rect width="687" height="257" fill="white"/>
</clipPath>
</defs>
</svg>
