<?xml version="1.0" encoding="UTF-8"?>
<svg id="Layer_1" xmlns="http://www.w3.org/2000/svg" version="1.1" viewBox="0 0 304.77 155.84">
  <!-- Generator: Adobe Illustrator 29.8.4, SVG Export Plug-In . SVG Version: 2.1.1 Build 6)  -->
  <defs>
    <style>
      .st0 {
        fill: #231f20;
      }
    </style>
  </defs>
  <g>
    <path class="st0" d="M92.79,20.04c-1.64,2.3-4.26,5.64-6.56,8.07-1.97-.72-5.84-2.23-9.57-3.94v37.78c.72.07,2.23.07,3.02.07,5.44,0,9.31-1.71,11.94-3.74l.52.79c-3.28,4.53-8.07,8.72-17.97,8.72-13.38,0-22.49-7.94-22.49-22.1,0-10.03,7.54-18.82,13.05-21.51l.85.59c-4.07,3.74-6.1,10.62-6.1,16.13,0,5.97,1.18,10.56,3.54,13.97,2.23-1.64,2.75-3.61,2.75-6.62v-19.48c5.64-4.33,9.31-7.54,13.18-10.95,5.57,2.23,8.07,3.15,10.76,3.15.59,0,1.25-.39,2.1-1.64l.98.72ZM75.47,23.59l-.72-.33-1.97,1.57v24.86s-4.85,3.02-9.18,6.03c2.69,3.41,6.69,5.44,11.87,6.17V23.59Z"/>
    <path class="st0" d="M116.27,61.95c-1.51,1.44-3.67,3.54-4.98,4.85-2.1-1.64-4.79-3.54-6.1-4.46l-5.18,4.46c-1.84-1.51-4.79-3.67-7.08-5.18v-.26c.72-.46,1.12-1.05,1.12-3.28v-7.41c2.36-1.11,4.39-2.23,5.84-3.15-2.69-.98-4.92-3.48-4.92-7.02,0-4.59,2.23-6.69,4.26-9.12,1.05-1.31,1.71-2.16,2.43-3.28,3.15,1.38,8.66,3.93,12.26,5.25v.26c-.79.59-1.11,1.44-1.11,3.08v23.54c.59.59,2.62,1.77,3.34,1.51l.13.2ZM106.04,36.96c-2.82-1.71-4.07-2.49-5.38-2.49-1.18,0-4.13.85-4.13,6.03,0,3.48,3.08,6.3,7.35,6.3.59,0,1.38-.2,2.16-.46v-9.38ZM106.04,59.85v-12c-.72.26-1.44.46-2.23.46-.98,0-2.1-.26-2.95-.52-.33.59-.46,1.57-.46,2.75v9.25c1.11.72,1.97,1.44,3.21,2.16l2.43-2.1Z"/>
    <path class="st0" d="M133.46,40.57h-.26c-1.64-1.77-4.07-5.31-4.85-7.21l-1.38,1.44v23.87c3.15,1.97,3.74,2.23,4.72,2.23.46,0,.85-.39,1.25-.85l.59-.66,1.11.98c-3.87,3.87-6.36,6.43-6.36,6.43-2.75-1.84-5.77-3.48-9.18-5.12v-.26c.72-.66,1.12-1.25,1.12-3.28v-23.48c-1.38-1.05-2.3-1.44-3.28-1.51l-.13-.2c1.51-1.38,3.48-3.15,4.98-4.85,1.84,1.51,3.8,3.28,5.44,4.59,2.3-1.97,3.02-2.75,4.92-4.59,1.25,1.97,3.48,5.12,5.51,7.28-1.31,1.31-2.95,3.48-4.2,5.18Z"/>
    <path class="st0" d="M151.3,61.89c-1.31,1.25-3.48,3.41-5.05,4.92-1.9-1.44-4.59-3.28-6.3-4.39v-.26c.79-.33,1.12-1.18,1.12-3.15V20.11c0-1.57-.13-2.62-.66-3.34l.26-.13c.92.26,2.23,1.31,2.75,2.69h.13c.85-2.23,2.82-4.33,5.12-4.98l.2.13c-.52.92-1.05,2.1-1.05,4.39v41.38c1.05.79,2.56,1.57,3.34,1.51l.13.13Z"/>
    <path class="st0" d="M172.81,47.19c-.72.52-1.11,1.18-1.11,2.49v11.35c-3.48,1.31-7.21,3.34-10.76,5.77-1.84-1.31-4.33-2.69-6.62-3.21-.13.39-.26,1.11-.26,2.03v.98c-.59-.2-1.71-.52-1.71-.52.2-7.8,5.05-13.9,7.54-16.92-1.9-1.05-5.71-3.41-6.95-3.94v-.26c.72-.39,1.11-1.05,1.11-2.36v-9.51c3.34-.98,7.08-2.95,9.84-4.98,2.1,1.64,4.26,3.41,6.69,4.85.39-.92.33-1.84.59-2.95.39.33,1.18.66,1.44.98-.39,2.75-1.97,6.69-6.36,12.33l6.56,3.61v.26ZM165,62.15v-12.99l-2.03-1.05c-1.97,2.16-5.97,7.54-7.21,10.43,3.48.2,7.02,2.03,9.12,3.67l.13-.07ZM161.07,32.44l-.26.13v10.43c.59.33,1.77.98,2.43,1.25,1.57-1.57,3.74-4.66,4.72-6.62-2.69-1.31-5.57-3.87-6.89-5.18Z"/>
    <path class="st0" d="M196.94,33.95c-.79.52-1.11,1.38-1.11,3.34v22.23c-3.28,1.84-7.08,4.26-11.28,7.28-2.49-1.71-6.89-4.46-8.98-5.64v-.33c.59-.39,1.12-1.05,1.12-2.36V20.11c0-1.57-.13-2.62-.66-3.34l.26-.13c.92.26,2.23,1.31,2.75,2.69h.13c.98-2.23,2.43-4.07,5.12-4.98l.2.13c-.52.92-1.05,1.9-1.05,4.39v13.51c2.03-1.71,3.15-2.95,4.66-4.26,2.49,1.64,6.75,4.33,8.85,5.57v.26ZM189.07,62.15v-26.04c-1.25-.92-3.15-2.03-4.79-3.02l-.85.72v24.92c1.18.85,4,2.62,5.51,3.54l.13-.13Z"/>
    <path class="st0" d="M222.78,61.95c-1.51,1.44-3.67,3.54-4.98,4.85-2.1-1.64-4.79-3.54-6.1-4.46l-5.18,4.46c-1.84-1.51-4.79-3.67-7.08-5.18v-.26c.72-.46,1.11-1.05,1.11-3.28v-7.41c2.36-1.11,4.39-2.23,5.84-3.15-2.69-.98-4.92-3.48-4.92-7.02,0-4.59,2.23-6.69,4.26-9.12,1.05-1.31,1.71-2.16,2.43-3.28,3.15,1.38,8.66,3.93,12.26,5.25v.26c-.79.59-1.12,1.44-1.12,3.08v23.54c.59.59,2.62,1.77,3.34,1.51l.13.2ZM212.55,36.96c-2.82-1.71-4.07-2.49-5.38-2.49-1.18,0-4.13.85-4.13,6.03,0,3.48,3.08,6.3,7.35,6.3.59,0,1.38-.2,2.16-.46v-9.38ZM212.55,59.85v-12c-.72.26-1.44.46-2.23.46-.98,0-2.1-.26-2.95-.52-.33.59-.46,1.57-.46,2.75v9.25c1.11.72,1.97,1.44,3.21,2.16l2.43-2.1Z"/>
    <path class="st0" d="M246.4,34.47c-.79.66-1.11,1.18-1.11,3.61v21.45c-3.74,2.1-7.08,4.13-11.21,7.28-2.16-1.44-6.56-4.07-9.05-5.44v-.26c.66-.33,1.12-.98,1.12-2.3v-24.27c1.44-.79,4.98-2.89,7.15-4.33l-2.36-2.56c-3.15-3.48-3.8-4.2-3.8-6.95,0-1.97,1.12-4.52,2.1-6.36l.72.26c-.39,1.84.07,3.21,3.74,6.89,0,0,10.36,10.82,12.72,12.72v.26ZM238.53,62.02v-26.23l-4.2-4.46-1.44.92v26.56c1.31.85,4.07,2.49,5.51,3.28l.13-.07Z"/>
  </g>
  <g>
    <path class="st0" d="M76.49,109.34c0,6.1-1.57,7.35-8.72,14.89-1.9,2.03-4.2,3.8-6.62,6.36-3.28-2.3-8.59-5.05-12.26-6.75l-8.33,6.75c-4.79-2.89-9.25-5.05-14.43-6.82l-.07-.39c2.16-1.57,3.61-3.87,3.61-7.74v-8.59h-.85c-3.15,0-5.25.79-6.3,2.95l-.59-.26c.66-6.75,3.74-9.64,7.54-9.64h.2v-7.87c-5.25-3.67-6.62-4.46-7.8-4.46-.92,0-1.31.39-3.02,1.77l-.79-.92c3.61-3.02,5.51-4.66,8.66-7.28,2.56,1.9,6.17,4.59,10.3,7.54l2.95-2.23v-.72c0-1.64-.33-3.41-.59-4.26v-.13l1.44.2c.2.79.39,2.36.39,3.61v.46c1.77-1.31,3.48-2.49,5.9-4.33,3.41,2.49,5.84,4.13,9.31,6.23,1.05-.72,1.97-1.44,3.02-2.16-.07-1.51-.33-3.08-.59-3.87v-.13l1.44.2c.13.66.33,1.9.39,3.02,1.51-1.18,2.75-2.1,4.26-3.21,5.71,1.38,11.54,4.85,11.54,14.23v13.58ZM39.96,88.1l-2.69,2.03v20.46c0,3.48-1.44,5.77-5.25,8.59v.2c2.43.52,5.05,1.18,7.94,2.16v-33.45ZM49.27,99.05v-7.21c-2.95-2.03-5.51-3.67-7.61-5.05l-.46.39v15.54l8.07-3.67ZM49.27,105.15v-4.98l-8.07,3.61v5.05l8.07-3.67ZM49.27,121.87v-15.61l-8.07,3.61v12.2c1.44.59,3.34,1.64,4.85,2.43l3.21-2.62ZM59.44,87.05l-2.56,1.84v30.89c.79.33,1.64.59,2.56,1.18v-33.91ZM68.95,99.05v-.66c0-6.75-2.69-10.17-8.13-11.48h-.13v15.94l8.26-3.8ZM68.95,105.15v-4.98l-8.26,3.74v5.05l8.26-3.8ZM68.95,106.26l-8.26,3.74v11.54c2.03.92,3.61,1.84,5.25,2.89,2.43-2.56,3.02-4.07,3.02-8.07v-10.1Z"/>
    <path class="st0" d="M103.12,125.68c-1.51,1.44-3.67,3.54-4.98,4.85-2.1-1.64-4.79-3.54-6.1-4.46l-5.18,4.46c-1.84-1.51-4.79-3.67-7.08-5.18v-.26c.72-.46,1.12-1.05,1.12-3.28v-7.41c2.36-1.11,4.39-2.23,5.84-3.15-2.69-.98-4.92-3.48-4.92-7.02,0-4.59,2.23-6.69,4.26-9.12,1.05-1.31,1.71-2.16,2.43-3.28,3.15,1.38,8.66,3.93,12.26,5.25v.26c-.79.59-1.11,1.44-1.11,3.08v23.54c.59.59,2.62,1.77,3.35,1.51l.13.2ZM92.89,100.69c-2.82-1.71-4.07-2.49-5.38-2.49-1.18,0-4.13.85-4.13,6.03,0,3.48,3.08,6.3,7.35,6.3.59,0,1.38-.2,2.16-.46v-9.38ZM92.89,123.58v-12c-.72.26-1.44.46-2.23.46-.98,0-2.1-.26-2.95-.52-.33.59-.46,1.57-.46,2.75v9.25c1.11.72,1.97,1.44,3.21,2.16l2.43-2.1Z"/>
    <path class="st0" d="M120.7,124.1l-6.36,6.43c-2.56-1.64-6.36-3.87-8.79-5.05v-.26c.85-.52,1.12-1.57,1.12-3.15v-22.63h-2.75v-.39c3.54-2.3,7.15-8.46,8.99-13.31h.46v9.9h6.75l-1.71,3.8h-5.05v23.08c3.15,2.03,3.41,1.9,4.46,1.9.53,0,1.12-.33,1.38-.66l.52-.59.98.92Z"/>
    <path class="st0" d="M130.54,111.12v10.03c4,2.56,5.64,3.21,6.82,3.21.46,0,.92-.26,1.38-.72l.59-.59.98,1.05c-1.51,1.44-4.66,4.59-6.3,6.43-2.82-1.77-8-4.72-11.35-6.36v-.26c.79-.59,1.11-1.18,1.11-3.21v-23.61c3.41-.92,7.94-2.82,11.8-5.31,1.51,3.28,4.92,9.77,6.76,12.72-2.36,1.77-8.07,4.59-11.81,6.62ZM130.87,96.1l-.33.07v13.25c2.03-.98,4.59-2.23,5.97-3.15-1.64-2.69-4.53-7.67-5.64-10.17Z"/>
    <path class="st0" d="M159.26,104.3h-.26c-1.64-1.77-4.07-5.31-4.85-7.21l-1.38,1.44v23.87c3.15,1.97,3.74,2.23,4.72,2.23.46,0,.85-.39,1.25-.85l.59-.66,1.12.98c-3.87,3.87-6.36,6.43-6.36,6.43-2.75-1.84-5.77-3.48-9.18-5.12v-.26c.72-.66,1.12-1.25,1.12-3.28v-23.48c-1.38-1.05-2.3-1.44-3.28-1.51l-.13-.2c1.51-1.38,3.48-3.15,4.98-4.85,1.84,1.51,3.8,3.28,5.44,4.59,2.3-1.97,3.02-2.75,4.92-4.59,1.25,1.97,3.48,5.12,5.51,7.28-1.31,1.31-2.95,3.48-4.2,5.18Z"/>
    <path class="st0" d="M214.36,122.26c-3.87,2.23-8,5.44-11.87,8.72-2.29-1.31-5.71-2.43-8.33-3.02v10.62c0,1.64.33,3.34.59,4.2v.13l-1.44-.2c-.2-.79-.33-2.43-.33-3.67v-11.28c-.92-.13-1.77-.26-2.75-.33v10.23c0,1.38.13,3.28.33,4.72l-.2.07c-1.05-.92-2.56-2.95-2.95-4.59h-.2c-1.31,2.49-3.54,4.66-5.71,5.71l-.2-.07c.85-1.71,1.31-4.33,1.31-6.89v-9.64h-3.34c-3.08,0-4.85,1.18-5.64,2.95l-.66-.26c.39-5.57,3.34-9.9,8.13-9.9h1.51v-9.84h-1.31c-3.08,0-4.85,1.18-5.64,2.95l-.66-.26c.52-5.18,2.62-9.64,7.41-9.64h.2v-10.89c-5.44-3.74-6.56-4.26-7.48-4.26-1.05,0-1.77.66-2.69,1.44l-.79-.92,8.2-6.95c2.56,1.77,5.64,4,10.56,7.67l2.56-1.71v-1.51c0-1.64-.33-3.34-.59-4.2v-.13l1.44.2c.2.79.33,2.43.33,3.67v1.18l7.67-5.25c9.77,1.84,12.53,8.39,12.53,15.94v24.99ZM192.98,88.88l-2.75,1.84v29.38c.98,0,1.77.07,2.75.2v-31.41ZM206.75,99.7v-2.1c0-7.21-4.39-9.77-10.43-11.02l-2.16,1.51v17.51l12.59-5.9ZM206.75,105.8v-4.79l-12.59,5.84v4.85l12.59-5.9ZM206.75,124.63v-17.51l-12.59,5.84v7.54c4.26.52,9.38,2.36,12.46,4.2l.13-.07Z"/>
    <path class="st0" d="M241.12,97.47c-.59.46-1.12,1.05-1.12,2.95v22.82c-3.02,1.71-7.74,4.66-11.28,7.28-2.89-1.97-6.23-4.07-8.98-5.64v-.26c.79-.33,1.11-1.18,1.11-2.56v-23.02c3.34-1.9,7.87-4.79,11.28-7.28,2.75,1.77,6.17,3.94,8.99,5.44v.26ZM233.25,125.81v-25.97c-1.51-1.05-3.74-2.43-5.44-3.41l-.2.07v25.97c1.44,1.05,4,2.62,5.51,3.48l.13-.13Z"/>
    <path class="st0" d="M256.4,125.61c-1.31,1.25-3.48,3.41-5.05,4.92-1.9-1.44-4.59-3.28-6.3-4.39v-.26c.79-.33,1.11-1.18,1.11-3.15v-38.89c0-1.57-.13-2.62-.66-3.34l.26-.13c.92.26,2.23,1.31,2.75,2.69h.13c.85-2.23,2.82-4.33,5.12-4.98l.2.13c-.52.92-1.05,2.1-1.05,4.39v41.38c1.05.79,2.56,1.57,3.34,1.51l.13.13Z"/>
    <path class="st0" d="M280.01,97.47c-.59.46-1.12,1.05-1.12,2.95v22.82c-3.02,1.71-7.74,4.66-11.28,7.28-2.89-1.97-6.23-4.07-8.98-5.64v-.26c.79-.33,1.11-1.18,1.11-2.56v-23.02c3.34-1.9,7.87-4.79,11.28-7.28,2.75,1.77,6.17,3.94,8.99,5.44v.26ZM272.14,125.81v-25.97c-1.51-1.05-3.74-2.43-5.44-3.41l-.2.07v25.97c1.44,1.05,4,2.62,5.51,3.48l.13-.13Z"/>
  </g>
</svg>